<mxfile host="Electron" agent="Mozilla/5.0 (Macintosh; Intel Mac OS X 10_15_7) AppleWebKit/537.36 (KHTML, like Gecko) draw.io/26.0.16 Chrome/132.0.6834.196 Electron/34.2.0 Safari/537.36" version="26.0.16">
  <diagram name="Page-1" id="fC8uANzK3IzWBaoVTia8">
    <mxGraphModel dx="377" dy="822" grid="1" gridSize="10" guides="1" tooltips="1" connect="1" arrows="1" fold="1" page="1" pageScale="1" pageWidth="827" pageHeight="1169" math="0" shadow="0">
      <root>
        <mxCell id="0" />
        <mxCell id="1" parent="0" />
        <mxCell id="ugGi5KEEK_lPGR_BiLdL-1" value="&lt;div&gt;«struct»&lt;br&gt;&lt;/div&gt;&lt;b&gt;Film&lt;/b&gt;&lt;div&gt;&lt;br&gt;&lt;/div&gt;&lt;div&gt;The main film object.&lt;/div&gt;&lt;div&gt;&lt;br&gt;&lt;/div&gt;&lt;pre style=&quot;text-align: left;&quot;&gt;id: UUID&lt;br/&gt;imdbId: String&lt;br/&gt;title: String&lt;br/&gt;year: String&lt;br/&gt;genres: [String]&lt;br/&gt;imdbRating: Double&lt;br/&gt;posterUrl: String&lt;br/&gt;description: String&lt;br/&gt;trailerUrl: String?&lt;br/&gt;country: String&lt;br/&gt;language: String&lt;br/&gt;releaseDate: String&lt;br/&gt;runtime: Int&lt;br/&gt;plot: String&lt;/pre&gt;&lt;pre style=&quot;text-align: left;&quot;&gt;dateAdded: Date&lt;br&gt;myRating: Int&lt;br&gt;recommendedBy: String?&lt;br&gt;intendedAudience: AudienceType&lt;br&gt;watched: Bool&lt;br&gt;watchDate: Bool?&lt;br&gt;streamingService: String?&lt;/pre&gt;" style="rounded=0;whiteSpace=wrap;html=1;sketch=1;curveFitting=1;jiggle=2;fillColor=#dae8fc;strokeColor=#6c8ebf;" parent="1" vertex="1">
          <mxGeometry x="100" y="200" width="270" height="440" as="geometry" />
        </mxCell>
      </root>
    </mxGraphModel>
  </diagram>
</mxfile>
